<svg width="38" height="38" viewBox="0 0 38 38" fill="none" xmlns="http://www.w3.org/2000/svg">
<g clip-path="url(#clip0_6_395)">
<path d="M16.0333 25.5C22.07 25.5 25.3723 20.498 25.3723 16.1613C25.3723 16.0207 25.369 15.877 25.3627 15.7363C26.0052 15.2717 26.5596 14.6961 27 14.0367C26.4017 14.3027 25.7667 14.4767 25.116 14.552C25.8008 14.1415 26.3136 13.4967 26.5593 12.737C25.915 13.1189 25.2104 13.3883 24.4757 13.5337C23.9807 13.0075 23.3261 12.659 22.6132 12.5422C21.9002 12.4253 21.1687 12.5467 20.5316 12.8874C19.8946 13.2281 19.3875 13.7692 19.0889 14.4271C18.7903 15.0849 18.7168 15.8228 18.8797 16.5267C17.575 16.4612 16.2986 16.1223 15.1334 15.5319C13.9681 14.9416 12.9398 14.1129 12.1153 13.0997C11.6963 13.8222 11.5681 14.6771 11.7567 15.4907C11.9454 16.3044 12.4368 17.0156 13.131 17.48C12.6098 17.4635 12.0999 17.3232 11.6437 17.0707V17.1113C11.6432 17.8695 11.9053 18.6044 12.3855 19.1912C12.8656 19.778 13.5341 20.1804 14.2773 20.33C13.7946 20.4621 13.288 20.4814 12.7967 20.3863C13.0064 21.0383 13.4145 21.6086 13.964 22.0175C14.5135 22.4264 15.1769 22.6536 15.8617 22.6673C15.1805 23.2025 14.4005 23.598 13.5662 23.8312C12.732 24.0643 11.8599 24.1305 11 24.026C12.5019 24.9894 14.249 25.501 16.0333 25.5Z" fill="#636270"/>
</g>
<defs>
<clipPath id="clip0_6_395">
<rect width="16" height="16" fill="white" transform="translate(11 11)"/>
</clipPath>
</defs>
</svg>
