<svg width="38" height="38" viewBox="0 0 38 38" fill="none" xmlns="http://www.w3.org/2000/svg">
<path d="M21.6666 15.6667C21.6666 15.4899 21.7369 15.3203 21.8619 15.1953C21.9869 15.0702 22.1565 15 22.3333 15C22.5101 15 22.6797 15.0702 22.8047 15.1953C22.9297 15.3203 23 15.4899 23 15.6667C23 15.8435 22.9297 16.013 22.8047 16.1381C22.6797 16.2631 22.5101 16.3333 22.3333 16.3333C22.1565 16.3333 21.9869 16.2631 21.8619 16.1381C21.7369 16.013 21.6666 15.8435 21.6666 15.6667Z" fill="#636270"/>
<path fill-rule="evenodd" clip-rule="evenodd" d="M18.9999 15.8334C18.1601 15.8334 17.3546 16.167 16.7607 16.7609C16.1669 17.3547 15.8333 18.1602 15.8333 19C15.8333 19.8399 16.1669 20.6453 16.7607 21.2392C17.3546 21.8331 18.1601 22.1667 18.9999 22.1667C19.8398 22.1667 20.6452 21.8331 21.2391 21.2392C21.833 20.6453 22.1666 19.8399 22.1666 19C22.1666 18.1602 21.833 17.3547 21.2391 16.7609C20.6452 16.167 19.8398 15.8334 18.9999 15.8334ZM16.8333 19C16.8333 18.4254 17.0615 17.8743 17.4679 17.468C17.8742 17.0616 18.4253 16.8334 18.9999 16.8334C19.5746 16.8334 20.1257 17.0616 20.532 17.468C20.9383 17.8743 21.1666 18.4254 21.1666 19C21.1666 19.5747 20.9383 20.1258 20.532 20.5321C20.1257 20.9384 19.5746 21.1667 18.9999 21.1667C18.4253 21.1667 17.8742 20.9384 17.4679 20.5321C17.0615 20.1258 16.8333 19.5747 16.8333 19Z" fill="#636270"/>
<path fill-rule="evenodd" clip-rule="evenodd" d="M22.5053 12.8886C20.1755 12.6304 17.8244 12.6304 15.4946 12.8886C14.1533 13.0386 13.07 14.0953 12.9126 15.4433C12.6362 17.8064 12.6362 20.1936 12.9126 22.5566C13.07 23.9046 14.1526 24.9613 15.4946 25.1113C17.8053 25.3693 20.1946 25.3693 22.5053 25.1113C23.8466 24.9613 24.93 23.9046 25.0873 22.5566C25.3637 20.1936 25.3637 17.8064 25.0873 15.4433C24.93 14.0953 23.8473 13.0386 22.5053 12.8886ZM15.6053 13.882C17.8615 13.6319 20.1384 13.6319 22.3946 13.882C23.2813 13.982 23.9913 14.6813 24.0946 15.56C24.3619 17.8455 24.3619 20.1544 24.0946 22.44C23.9913 23.3186 23.2813 24.0186 22.3946 24.1173C20.1384 24.3674 17.8615 24.3674 15.6053 24.1173C14.7186 24.0186 14.0086 23.3186 13.9053 22.44C13.638 20.1544 13.638 17.8455 13.9053 15.56C14.0086 14.6813 14.7186 13.9813 15.6053 13.8826V13.882Z" fill="#636270"/>
</svg>
