<svg width="38" height="38" viewBox="0 0 38 38" fill="none" xmlns="http://www.w3.org/2000/svg">
<path d="M26.8407 15.7999C26.8407 15.7999 26.6843 14.6966 26.203 14.2126C25.5937 13.5749 24.9123 13.5719 24.6 13.5343C22.3627 13.3719 19.0033 13.3719 19.0033 13.3719H18.9967C18.9967 13.3719 15.6377 13.3719 13.4 13.5343C13.0873 13.5719 12.4063 13.5749 11.7967 14.2126C11.316 14.6966 11.1627 15.7999 11.1627 15.7999C11.1627 15.7999 11 17.0966 11 18.3906V19.6029C11 20.8969 11.1593 22.1936 11.1593 22.1936C11.1593 22.1936 11.3157 23.2969 11.7937 23.7813C12.403 24.4186 13.203 24.3969 13.5593 24.4656C14.8407 24.5876 19 24.6249 19 24.6249C19 24.6249 22.3623 24.6186 24.6 24.4593C24.9127 24.4219 25.5937 24.4186 26.2033 23.7813C26.6843 23.2969 26.8407 22.1936 26.8407 22.1936C26.8407 22.1936 27 20.9003 27 19.6033V18.3909C27 17.0973 26.8407 15.8003 26.8407 15.8003V15.7999ZM17.3467 21.0749V16.5783L21.6683 18.8343L17.3467 21.0749Z" fill="#636270"/>
</svg>
