<svg width="36" height="23" viewBox="0 0 36 23" fill="none" xmlns="http://www.w3.org/2000/svg">
<path d="M35.6526 18.3935V17.9615H35.5401L35.41 18.258L35.2806 17.9615H35.1677V18.3935H35.2476V18.0681L35.3693 18.3489H35.4521L35.5738 18.0674V18.3935H35.653H35.6526ZM34.939 18.3935V18.0355H35.083V17.9626H34.7151V18.0355H34.8591V18.3935H34.9383H34.939Z" fill="#F79410"/>
<path d="M22.8673 20.2465H13.1331V2.75269H22.8675L22.8673 20.2465Z" fill="#FF5F00"/>
<path d="M13.7503 11.4999C13.7503 7.95133 15.4118 4.79021 17.9992 2.75304C16.0407 1.20874 13.6183 0.370594 11.1242 0.37428C4.98034 0.37428 0 5.35534 0 11.4999C0 17.6446 4.98034 22.6256 11.1242 22.6256C13.6184 22.6293 16.0408 21.7912 17.9994 20.2469C15.4122 18.2101 13.7503 15.0487 13.7503 11.4999Z" fill="#EB001B"/>
<path d="M36 11.4999C36 17.6446 31.0197 22.6256 24.8758 22.6256C22.3814 22.6293 19.9587 21.7911 17.9998 20.2469C20.5878 18.2097 22.2494 15.0487 22.2494 11.4999C22.2494 7.95115 20.5878 4.79021 17.9998 2.75304C19.9586 1.20879 22.3812 0.370659 24.8756 0.374279C31.0195 0.374279 35.9998 5.35534 35.9998 11.4999" fill="#F79E1B"/>
</svg>
